# xmcd CD database file
#
# Track frame offsets:
#	150
#	12562
#	28807
#	41887
#	66327
#	77247
#	90742
#	108030
#	121295
#	136052
#	149537
#	159845
#	174287
#
# Disc length: 2366 seconds
#
# Revision: 0
# Processed by: cddbd v1.4PL0 Copyright (c) Steve Scherf et al.
# Submitted via: Feurio! 1.65 - http://www.feurio.com
#
DISCID=aa093c0d
DTITLE=Commander Cody and His Lost Planet Airmen - Bar Room Classics
DYEAR=1973
DGENRE=Country
TTITLE0=Blue Suede Shoes
TTITLE1=Down And Out
TTITLE2=Ain't Nothin' Shakin'
TTITLE3=Milk Cow Blues
TTITLE4=What Made Milwaukee Famous
TTITLE5=Hard Deaded Woman
TTITLE6=Beat Me, Daddy, 8 To The Bar
TTITLE7=Wine, Wine, Wine
TTITLE8=Truck Drivin' Man
TTITLE9=Hot Rod Lincoln
TTITLE10=Lawdy Miss Clawdy
TTITLE11=Hey, Hey, Hey
TTITLE12=Jailhouse Rock
EXTD=
EXTT0=
EXTT1=
EXTT2=
EXTT3=
EXTT4=
EXTT5=
EXTT6=
EXTT7=
EXTT8=
EXTT9=
EXTT10=
EXTT11=
EXTT12=
PLAYORDER=
